<svg width="62" height="88" viewBox="0 0 62 88" fill="none" xmlns="http://www.w3.org/2000/svg">
<path fill-rule="evenodd" clip-rule="evenodd" d="M27.79 0.23C35.92 0.0900002 50.29 -0.17 54.03 16.2C57.56 31.52 55.17 42.66 40.98 45.52L48.01 52.35L47.74 59.51L39.27 60.45L36.87 56.76L37.79 50.89L33.83 50.6L33.56 44.61L30.54 43.96L29.77 47.26H29.59L29.73 52.32L29.06 57L29.02 57.07L31.29 57.57L31.95 59.97H27.24L25.94 62.09L18.88 62.68L14.59 60.43L13.77 54.01L18.81 45.66C8.96 42.76 5.65 35.37 8.55 16.97C6.83 16.17 5.36 14.92 4.29 13.34C3.22 11.76 2.59 9.92 2.47 8.01L9.68 7.4L10.1 7.06C11.93 5.69 19.28 0.26 25.84 0.26C26.44 0.26 27.1 0.25 27.8 0.24L27.79 0.23ZM20.59 35.89C20.59 35.89 42.75 32.99 48.28 35.43C48.28 35.43 51.56 29.38 50.78 16.81C50.78 16.81 38.97 9.72 19.18 15.15L20.59 35.89V35.89ZM18.65 64.99L47.41 64.21L43.02 77.18L37.06 77.41L35.77 73.23L29.75 73.32L29.38 77.55L22.17 77.35L18.65 64.99V64.99ZM29.32 81.54L29.65 86.55L16.51 86.66L16.84 83.59L21.08 81.22L29.33 81.54H29.32ZM36.46 86.55L36.79 81.54L42.47 81.3L49.27 83.59L49.6 86.66L36.46 86.55V86.55Z" fill="#4D668E"/>
<path d="M37.28 79.08C37.35 78.46 37.3 77.85 37.11 77.24C37.06 77.08 37.01 76.98 36.83 76.98C36.61 76.98 36.39 76.98 36.17 76.98C35.62 76.94 35.25 76.61 35.12 76.05C35.07 75.84 35.06 75.62 34.99 75.41C34.84 74.96 34.79 74.49 34.53 74.08C34.47 73.99 34.46 73.87 34.44 73.77C34.41 73.59 34.48 73.36 34.29 73.27C34.13 73.2 33.93 73.22 33.75 73.21C33.64 73.21 33.52 73.19 33.42 73.23C32.64 73.55 31.83 73.41 31.02 73.42C30.81 73.42 30.7 73.51 30.62 73.71C30.54 73.91 30.41 74.09 30.44 74.33C30.49 74.85 30.35 75.34 30.24 75.84C30.19 76.06 30.1 76.25 30.05 76.46C29.88 77.06 29.43 77.32 28.91 77.54C28.79 77.59 28.72 77.54 28.62 77.52C28.26 77.45 28.01 77.62 28.01 77.92C28.01 78.47 28.01 79.03 28.01 79.58C28.01 79.79 28.2 80.01 28.39 80.07C28.42 80.07 28.46 80.08 28.5 80.07C29.13 79.97 29.31 80.46 29.54 80.87C29.57 81.58 29.98 82.28 29.64 83.01C29.51 83.29 29.49 83.63 29.6 83.87C29.9 84.54 29.77 85.15 29.55 85.78C29.5 85.91 29.55 86.09 29.47 86.2C29.27 86.53 29.02 86.75 28.58 86.75C28 86.75 27.4 86.62 26.83 86.86C26.76 86.89 26.64 86.78 26.54 86.78C26.03 86.75 25.52 86.63 25.02 86.88C24.85 86.96 24.68 86.93 24.49 86.88C23.85 86.69 23.23 86.68 22.66 86.85C22.48 86.91 22.28 86.99 22.13 86.9C21.78 86.7 21.42 86.74 21.05 86.74C20.24 86.74 19.42 86.74 18.61 86.74C18.28 86.74 17.96 86.69 17.65 86.89C17.52 86.98 17.27 86.98 17.11 86.92C16.67 86.73 16.2 86.68 15.75 86.55C15.33 86.43 15.19 86.14 15.16 85.86C15.09 85.2 15.1 84.53 15.14 83.87C15.16 83.55 15.34 83.24 15.62 83.03C15.82 82.88 16.04 82.73 16.25 82.6C16.78 82.28 17.33 81.99 17.76 81.52C17.94 81.33 18.14 81.17 18.39 81.09C18.71 80.98 18.94 80.74 19.2 80.54C19.76 80.12 20.35 79.79 21.1 79.83C21.76 79.87 22.43 79.83 23.09 79.83C23.21 79.83 23.33 79.73 23.28 79.62C23.06 79.17 23.11 78.69 23.11 78.22C23.11 78.11 23.11 78 23.11 77.89C23.11 77.71 22.99 77.63 22.82 77.63C22.38 77.63 21.93 77.64 21.49 77.63C20.38 77.62 20.47 77.74 19.95 76.61C19.87 76.44 19.77 76.29 19.79 76.1C19.79 75.99 19.82 75.84 19.76 75.78C19.34 75.32 19.37 74.69 19.16 74.15C19.01 73.76 18.78 73.35 18.89 72.88C18.67 72.27 18.59 71.62 18.36 71.01C18.31 70.88 18.23 70.73 18.24 70.6C18.3 70.07 17.9 69.63 17.96 69.1C17.56 68.36 17.52 67.5 17.21 66.73C17.02 66.26 16.99 65.74 16.71 65.3C16.68 65.25 16.68 65.13 16.71 65.09C16.93 64.84 16.78 64.47 16.92 64.26C17.13 63.95 17.03 63.61 17.14 63.31C17.24 63.04 17.33 62.76 17.46 62.5C17.6 62.21 17.5 62.09 17.3 61.94C17.01 61.72 16.73 61.46 16.4 61.32C15.86 61.1 15.47 60.63 14.87 60.5C14.52 60.42 14.29 60.07 14.06 59.78C14 59.71 13.98 59.56 14 59.47C14.09 59.08 13.75 58.71 13.98 58.32C13.67 57.69 13.84 57.02 13.79 56.37C13.76 56.01 13.77 55.66 13.63 55.29C13.5 54.97 13.58 54.56 13.57 54.19C13.57 53.96 13.8 53.76 13.6 53.48C13.49 53.33 13.55 53.06 13.53 52.8C13.26 52.93 13.04 53.04 12.81 53.13C12.71 53.17 12.59 53.2 12.49 53.18C12.18 53.1 11.83 53.04 11.57 52.87C11.15 52.59 10.84 52.14 10.38 51.9C10.11 51.43 9.80001 51 9.76001 50.41C9.71001 49.51 10.08 48.7 10.23 47.85C10.24 47.78 10.29 47.72 10.33 47.66C10.81 46.98 11.12 46.17 11.72 45.57C11.1 44.9 11.1 44.91 9.97001 44.32C9.68001 44.17 9.47001 43.88 9.18001 43.72C8.60001 43.39 8.08001 43 7.63001 42.51C7.55001 42.43 7.48001 42.33 7.38001 42.29C6.72001 42.02 6.24001 41.51 5.69001 41.09C5.42001 40.89 5.18001 40.71 5.02001 40.41C4.96001 40.29 4.81001 40.16 4.68001 40.15C4.20001 40.1 3.88001 39.77 3.54001 39.52C2.96001 39.09 2.41001 38.61 1.79001 38.23C1.61001 38.12 1.47001 37.92 1.31001 37.77C1.07001 37.55 0.850007 37.32 0.530007 37.17C0.140007 36.99 0.0200065 36.62 -0.0299935 36.17C-0.109993 35.29 0.190007 34.51 0.480007 33.73C0.670007 33.22 1.01001 32.78 1.41001 32.39C1.73001 32.08 2.08001 31.79 2.34001 31.44C2.90001 30.69 3.66001 30.74 4.44001 30.84C4.60001 30.86 4.77001 31 4.89001 31.13C5.26001 31.51 5.75001 31.68 6.20001 31.9C6.23001 31.91 6.27001 31.9 6.31001 31.89C6.41001 31.85 6.38001 31.81 6.35001 31.72C6.25001 31.41 6.20001 31.08 6.08001 30.78C5.97001 30.49 6.00001 30.2 5.99001 29.91C5.99001 29.72 5.91001 29.56 5.83001 29.39C5.73001 29.15 5.74001 28.89 5.85001 28.64C5.89001 28.54 5.99001 28.4 5.96001 28.34C5.68001 27.86 5.84001 27.33 5.76001 26.83C5.74001 26.73 5.67001 26.63 5.64001 26.53C5.62001 26.46 5.58001 26.38 5.60001 26.32C5.94001 25.5 5.68001 24.65 5.78001 23.82C5.83001 23.35 5.71001 22.87 5.97001 22.42C6.07001 22.25 6.00001 21.99 6.01001 21.76C6.03001 21.4 5.94001 21.02 6.19001 20.69C6.25001 20.61 6.22001 20.48 6.23001 20.37C6.26001 19.97 6.22001 19.58 6.38001 19.18C6.54001 18.79 6.45001 18.32 6.66001 17.91C6.84001 17.56 6.90001 17.15 7.05001 16.79C7.14001 16.58 7.08001 16.38 6.83001 16.25C6.74001 16.2 6.62001 16.21 6.52001 16.16C5.99001 15.93 5.45001 15.75 5.12001 15.2C4.91001 14.85 4.55001 14.64 4.18001 14.45C3.99001 14.35 3.78001 14.25 3.63001 14.1C3.40001 13.87 3.25001 13.54 3.00001 13.35C2.76001 13.18 2.52001 13.02 2.31001 12.81C2.23001 12.73 2.14001 12.65 2.10001 12.56C1.98001 12.3 2.02001 11.98 1.75001 11.78C1.51001 11.61 1.40001 11.32 1.22001 11.08C0.730007 10.41 0.460007 9.68 0.460007 8.84C0.460007 8.36 0.440007 7.88 0.460007 7.4C0.460007 7.09 0.710007 6.84 1.03001 6.84C1.47001 6.84 1.92001 6.85 2.36001 6.86C3.36001 6.86 4.36001 6.88 5.35001 6.88C5.53001 6.88 5.76001 6.9 5.89001 6.81C6.35001 6.5 6.93001 6.78 7.36001 6.45C7.65001 6.61 7.90001 6.48 8.16001 6.36C8.79001 6.08 9.48001 6 10.13 5.75C10.43 5.64 10.72 5.44 11.07 5.5C11.13 5.5 11.23 5.48 11.27 5.44C11.64 5.05 12.21 5.07 12.63 4.78C13.02 4.51 13.44 4.29 13.85 4.05C14.25 3.82 14.51 3.42 14.99 3.26C15.44 3.11 15.89 2.91 16.25 2.61C16.71 2.23 17.32 2.16 17.77 1.77C17.95 1.62 18.2 1.5 18.49 1.53C18.62 1.54 18.77 1.47 18.9 1.41C19.26 1.24 19.61 1.01 19.98 0.89C20.32 0.78 20.69 0.84 21.05 0.67C21.3 0.55 21.63 0.59 21.93 0.61C22.42 0.64 22.88 0.58 23.3 0.32C23.42 0.25 23.57 0.22 23.71 0.19C24.18 0.11 24.65 0.23 25.13 0.06C25.62 -0.12 26.15 -0.05 26.66 -0.05C27.14 -0.05 27.62 -0.04 28.1 -0.04C28.77 -0.04 29.43 -0.06 30.09 -0.06C30.38 -0.06 30.68 -0.11 30.94 0.1C30.99 0.14 31.11 0.17 31.14 0.15C31.5 -0.18 31.83 0.2 32.17 0.19C32.5 0.19 32.84 0.15 33.17 0.2C33.56 0.27 33.95 0.37 34.33 0.49C34.62 0.58 34.9 0.6 35.19 0.62C35.59 0.65 36.01 0.56 36.36 0.83C36.79 0.77 37.15 0.96 37.5 1.15C37.67 1.25 37.84 1.26 38.03 1.27C38.36 1.27 38.69 1.3 39.03 1.3C39.26 1.3 39.45 1.36 39.65 1.48C40.11 1.77 40.67 1.84 41.15 2.11C41.59 2.35 42.13 2.41 42.57 2.65C43.11 2.95 43.69 3.16 44.25 3.41C44.54 3.54 44.61 3.86 44.9 3.95C45.14 4.02 45.41 4.08 45.61 4.22C46.06 4.53 46.49 4.88 46.9 5.24C47.29 5.58 47.65 5.93 48.09 6.2C48.49 6.45 48.71 6.93 49.18 7.12C49.28 7.16 49.37 7.25 49.42 7.35C49.61 7.77 49.92 8.05 50.34 8.26C50.46 8.32 50.55 8.46 50.62 8.59C50.96 9.19 51.44 9.71 51.55 10.43C51.58 10.6 51.67 10.79 51.78 10.92C52.29 11.52 52.5 12.27 52.9 12.92C53.1 13.23 52.98 13.58 53.15 13.86C53.32 14.14 53.5 14.42 53.68 14.7C53.68 15.35 54.11 15.85 54.3 16.43C54.46 16.91 54.53 17.42 54.81 17.86C54.86 17.94 54.84 18.08 54.85 18.19C54.89 18.7 54.74 19.22 55.05 19.69C55.02 20.18 55.24 20.61 55.4 21.05C55.48 21.27 55.5 21.48 55.5 21.69C55.5 22.28 55.5 22.87 55.5 23.46C55.5 23.72 55.48 23.97 55.65 24.2C55.76 24.36 55.75 24.57 55.65 24.72C55.5 24.96 55.55 25.22 55.51 25.47C55.45 25.82 55.93 26.15 55.54 26.5C55.53 26.87 55.52 27.24 55.51 27.61C55.51 27.72 55.54 27.86 55.48 27.94C55.13 28.38 55.39 28.95 55.13 29.4C55.34 29.66 55 29.86 55.05 30.11C55.1 30.34 54.88 30.53 54.86 30.72C54.81 31.16 54.56 31.53 54.56 32C54.56 32.47 54.36 32.92 54.13 33.34C53.92 33.73 53.67 34.09 53.69 34.56C53.69 34.66 53.61 34.76 53.57 34.86C53.12 35.98 52.43 36.97 51.89 38.05C51.86 38.11 51.8 38.17 51.75 38.22C51.06 38.88 50.52 39.67 49.84 40.35C48.57 41.62 48.48 41.74 47 42.49C46.8 42.59 46.62 42.69 46.46 42.85C46.18 43.13 45.91 43.43 45.46 43.49C45.27 43.51 45.12 43.75 44.94 43.89C44.65 44.12 44.34 44.31 43.95 44.33C43.81 44.33 43.65 44.38 43.54 44.46C43.28 44.65 43.08 44.93 42.75 45.05C42.44 45.15 42.15 45.29 41.85 45.42C41.76 45.46 41.67 45.51 41.46 45.61C41.63 45.73 41.76 45.81 41.88 45.9C43.15 46.91 43.57 47.33 44.93 48.91C45.31 49.04 45.38 49.47 45.66 49.7C45.95 49.93 46.14 50.25 46.32 50.57C46.43 50.76 46.61 50.9 46.77 51.06C47.08 51.37 47.38 51.71 47.72 51.99C48.28 52.44 48.25 53 48.1 53.59C48.05 53.76 47.92 53.92 47.95 54.11C48.04 54.6 47.75 55.03 47.75 55.51C47.75 55.96 47.55 56.36 47.4 56.76C47.31 57.02 47.32 57.26 47.3 57.51C47.25 58.02 47.33 58.53 47.1 59.02C46.99 59.24 47.13 59.45 47.33 59.59C47.95 60.05 48.54 60.55 49.2 60.93C49.62 61.17 49.91 61.55 50.36 61.75C50.75 61.93 51.03 62.32 51.41 62.53C51.95 62.84 52.36 63.34 52.95 63.57C53.28 63.69 53.48 63.96 53.72 64.18C53.96 64.41 54.2 64.62 54.5 64.78C55.53 65.33 56.44 66.07 57.39 66.74C57.84 67.06 58.22 67.47 58.69 67.75C59.21 68.05 59.59 68.5 60.02 68.9C60.38 69.23 60.56 69.65 60.65 70.15C60.75 70.69 60.75 71.25 60.92 71.75C61.1 72.3 61.05 72.84 61.06 73.38C61.06 73.76 61.34 74.05 61.28 74.44C61.23 74.8 61.25 75.18 61.28 75.55C61.3 75.83 61.16 76.04 61.04 76.27C60.89 76.57 60.42 76.73 60.13 76.59C59.73 76.4 59.35 76.2 59.01 75.91C58.63 75.58 58.19 75.31 57.74 75.07C57.32 74.85 56.93 74.57 56.55 74.29C56.31 74.12 56.13 73.87 55.88 73.71C55.67 73.57 55.41 73.52 55.18 73.43C55.08 73.39 54.96 73.36 54.89 73.29C54.09 72.52 53.08 72.05 52.2 71.41C51.52 70.92 50.76 70.54 50.11 70.02C49.68 69.68 49.2 69.41 48.8 69.03C48.14 68.85 47.75 68.26 47.15 67.98C46.93 67.87 46.76 67.64 46.57 67.48C46.45 67.38 46.29 67.43 46.22 67.59C46.15 67.76 46.03 67.92 46.02 68.09C45.96 68.82 45.6 69.48 45.52 70.21C45.5 70.35 45.4 70.47 45.36 70.61C45.25 70.95 45.09 71.28 45.08 71.66C45.06 72.09 44.81 72.49 44.86 72.94C44.86 72.97 44.86 73.02 44.83 73.04C44.38 73.43 44.44 73.96 44.42 74.47C44.42 74.57 44.36 74.68 44.3 74.77C44.04 75.13 43.93 75.57 43.84 75.98C43.71 76.54 43.36 76.67 42.91 76.73C42.69 76.76 42.47 76.73 42.25 76.75C42.04 76.76 41.81 76.97 41.82 77.17C41.82 77.46 41.75 77.75 41.89 78.04C41.95 78.16 41.96 78.32 41.98 78.46C42.01 78.67 41.9 78.95 42.11 79.07C42.28 79.16 42.53 79.12 42.75 79.14C42.86 79.14 42.97 79.14 43.08 79.14C43.31 79.14 43.52 79.2 43.67 79.38C43.92 79.68 44.22 79.87 44.62 79.83C44.66 79.83 44.71 79.83 44.73 79.84C45.02 80.14 45.43 80.22 45.78 80.4C46.09 80.56 46.29 80.89 46.7 80.97C47.03 81.03 47.32 81.33 47.63 81.53C47.78 81.63 47.98 81.69 48.08 81.82C48.32 82.12 48.69 82.23 48.99 82.43C49.11 82.51 49.23 82.55 49.33 82.68C49.62 83.07 49.85 83.45 49.77 83.98C49.72 84.3 49.73 84.65 49.78 84.97C49.85 85.44 49.63 85.83 49.52 86.25C49.4 86.72 48.96 86.89 48.55 87.07C48.24 86.66 47.87 87.28 47.54 87C47.36 86.85 47.12 86.91 46.9 86.91C46.31 86.9 45.72 86.89 45.13 86.88C44.88 86.88 44.62 86.92 44.38 86.76C44.31 86.71 44.18 86.76 44.07 86.76C44.01 86.76 42.91 86.78 42.87 86.77C42.69 86.74 42.51 86.68 42.33 86.69C41.72 86.75 41.09 86.53 40.48 86.84C40.37 86.9 40.15 86.71 39.97 86.7C39.57 86.67 39.16 86.68 38.75 86.68C38.08 86.68 37.42 86.67 36.75 86.66C36.53 86.66 36.33 86.59 36.12 86.51C35.71 86.35 35.52 86.09 35.57 85.67C35.63 85.17 35.41 84.63 35.71 84.15C35.73 84.11 35.67 84.03 35.65 83.96C35.55 83.56 35.51 83.18 35.73 82.79C35.81 82.64 35.79 82.43 35.79 82.25C35.8 81.99 35.79 81.75 35.93 81.5C36.01 81.35 36.01 81.15 36.02 80.96C36.03 80.81 36 80.66 36 80.52C36.03 79.61 35.83 79.49 37.13 79.12C37.19 79.1 37.25 79.05 37.3 79.01L37.28 79.08ZM36.34 45.28C36.82 45.28 37.3 45.35 37.74 45.08C37.82 45.03 37.96 45.04 38.07 45.06C38.49 45.13 38.89 44.98 39.23 44.81C39.64 44.6 40.08 44.62 40.49 44.46C41.37 44.12 42.19 43.64 43.1 43.37C43.3 43.31 43.48 43.15 43.65 43.03C44.3 42.56 45.05 42.24 45.68 41.73C46.16 41.78 46.37 41.38 46.67 41.13C46.98 40.87 47.23 40.55 47.6 40.35C48.02 40.13 48.29 39.7 48.72 39.46C48.95 39.33 49.08 39.02 49.26 38.79C49.33 38.7 49.45 38.63 49.47 38.53C49.56 38.06 50.1 38.02 50.28 37.69C50.48 37.35 50.57 36.95 50.91 36.69C51.08 36.56 51.21 36.38 51.31 36.17C51.5 35.78 51.87 35.47 51.95 35.03C52.04 34.55 52.38 34.19 52.45 33.7C52.5 33.35 52.72 33.03 52.83 32.69C52.94 32.35 52.94 31.93 53.14 31.66C53.38 31.32 53.2 30.93 53.42 30.61C53.63 30.31 53.4 29.86 53.71 29.58C53.73 29.18 53.77 28.79 53.9 28.4C53.95 28.24 53.8 28.04 53.9 27.81C54.01 27.59 53.9 27.29 54.06 27.07C54.12 27 54.11 26.96 54.06 26.88C53.93 26.68 53.94 26.47 54.03 26.25C54.21 25.79 54.2 25.33 54.05 24.86C54 24.72 54 24.57 53.96 24.44C53.87 24.16 54.27 23.9 53.99 23.63C53.99 23.3 53.98 22.97 53.97 22.63C53.97 22.45 54.01 22.24 53.94 22.08C53.69 21.52 53.74 20.93 53.73 20.35C53.73 20.08 53.59 19.86 53.55 19.62C53.5 19.25 53.22 18.96 53.28 18.57C53.34 18.08 53.19 17.63 52.86 17.25C52.71 17.07 52.61 16.89 52.62 16.65C52.62 16.46 52.54 16.3 52.46 16.13C52.25 15.64 51.86 15.2 51.94 14.6C51.94 14.54 51.87 14.47 51.83 14.41C51.19 13.35 50.9 12.12 50.18 11.1C50.1 10.98 49.99 10.84 49.99 10.71C49.99 10.37 49.78 10.17 49.59 9.95C49.4 9.73 49.14 9.57 49.05 9.26C49.01 9.13 48.87 8.99 48.75 8.95C48.34 8.81 48.11 8.46 47.82 8.19C47.47 7.86 47.18 7.43 46.78 7.2C46.31 6.94 46.04 6.48 45.6 6.22C45.22 5.99 44.88 5.72 44.55 5.42C44.42 5.3 44.23 5.17 44.07 5.17C43.69 5.17 43.48 4.91 43.2 4.74C42.92 4.57 42.63 4.39 42.32 4.31C41.85 4.18 41.42 4.03 41.06 3.69C40.99 3.62 40.86 3.58 40.76 3.59C40.4 3.62 40.12 3.44 39.83 3.3C39.66 3.22 39.51 3.14 39.31 3.15C39.05 3.15 38.82 3.08 38.57 3C38.19 2.88 37.8 2.73 37.41 2.72C36.63 2.7 35.91 2.43 35.18 2.24C34.83 2.15 34.49 2.02 34.12 2.04C33.79 2.06 33.46 2.02 33.12 2.02C32.86 2.02 32.62 2.02 32.38 1.87C31.96 1.63 31.42 1.99 31 1.62C30.98 1.6 30.93 1.6 30.89 1.62C30.82 1.64 30.75 1.66 30.69 1.7C30.48 1.82 30.28 1.83 30.06 1.73C29.93 1.67 29.79 1.65 29.65 1.6C29.46 1.55 29.33 1.82 29.15 1.7C28.95 1.57 28.72 1.59 28.51 1.59C28.18 1.59 27.85 1.51 27.54 1.7C27.5 1.73 27.41 1.7 27.35 1.68C27.04 1.53 26.7 1.55 26.37 1.57C25.79 1.6 25.22 1.55 24.64 1.76C24.24 1.9 23.76 1.8 23.32 1.81C23.14 1.81 22.94 1.81 22.78 1.87C22.38 2.05 22 2.23 21.55 2.29C21.13 2.34 20.72 2.55 20.31 2.69C20.1 2.76 19.9 2.87 19.69 2.88C19.42 2.9 19.21 2.96 19 3.15C18.81 3.32 18.58 3.48 18.34 3.52C17.93 3.6 17.58 3.79 17.23 3.98C16.75 3.88 16.52 4.33 16.18 4.5C15.43 4.87 14.72 5.33 14.03 5.8C13.3 6.29 12.53 6.67 11.7 6.97C11.02 7.22 10.3 7.34 9.62001 7.58C9.45001 7.64 9.29001 7.76 9.12001 7.77C8.39001 7.84 7.72001 8.13 7.02001 8.31C6.85001 8.36 6.69001 8.45 6.50001 8.45C5.95001 8.45 5.41001 8.37 4.88001 8.63C4.52001 8.81 4.19001 8.47 3.82001 8.42C3.44001 8.37 3.15001 8.75 2.77001 8.57C2.74001 8.55 2.71001 8.52 2.67001 8.52C2.46001 8.52 2.24001 8.79 2.33001 8.96C2.59001 9.48 2.88001 9.99 3.11001 10.53C3.22001 10.78 3.33001 11 3.54001 11.15C3.88001 11.4 4.07001 11.75 4.25001 12.12C4.31001 12.25 4.38001 12.36 4.52001 12.44C4.74001 12.56 4.93001 12.74 5.12001 12.91C5.53001 13.27 5.81001 13.79 6.43001 13.85C6.89001 14.22 7.34001 14.58 7.80001 14.95C7.94001 15.06 8.06001 15.25 8.22001 15.29C8.62001 15.38 8.69001 15.72 8.85001 16C8.93001 16.14 8.92001 16.27 8.85001 16.41C8.72001 16.67 8.52001 16.94 8.52001 17.2C8.52001 17.65 8.17001 18.02 8.28001 18.48C8.39001 18.94 7.93001 19.29 8.04001 19.75C8.11001 20.03 7.81001 20.23 7.85001 20.48C7.89001 20.73 7.57001 20.89 7.75001 21.2C7.87001 21.39 7.88001 21.73 7.79001 21.95C7.60001 22.41 7.63001 22.88 7.61001 23.36C7.59001 23.8 7.61001 24.25 7.59001 24.69C7.58001 25.01 7.66001 25.36 7.43001 25.65V27.19C7.64001 27.44 7.58001 27.74 7.58001 28.04C7.59001 28.95 7.54001 29.88 7.98001 30.73C7.99001 31.36 8.19001 31.94 8.43001 32.52C8.48001 32.65 8.48001 32.81 8.48001 32.95C8.48001 33.22 8.57001 33.44 8.69001 33.67C9.21001 34.71 9.50001 35.85 10.02 36.89C10.12 37.08 10.16 37.3 10.33 37.45C10.59 37.71 10.81 37.99 11.02 38.3C11.21 38.59 11.59 38.75 11.85 39C12.11 39.25 12.41 39.47 12.54 39.85C12.59 40.01 12.75 40.18 12.9 40.25C13.43 40.49 13.82 40.98 14.43 41.07C14.56 41.09 14.71 41.18 14.8 41.29C15.21 41.75 15.77 41.92 16.3 42.15C16.8 42.36 17.35 42.48 17.8 42.77C18.22 43.04 18.66 43.13 19.11 43.26C19.21 43.29 19.37 43.25 19.43 43.31C19.87 43.77 20.52 43.69 21.03 43.97C21.15 44.04 21.3 44.14 21.43 44.13C21.82 44.08 22.12 44.34 22.49 44.39C22.88 44.44 23.24 44.63 23.63 44.73C23.98 44.82 24.35 44.84 24.69 44.95C25.02 45.06 25.34 45.06 25.67 45.06C25.89 45.06 26.16 45 26.32 45.1C26.67 45.31 27.03 45.25 27.39 45.26C27.57 45.26 27.76 45.26 27.93 45.32C28.86 45.63 29.3 45.62 29.35 44.32C29.36 44 29.72 43.52 30.01 43.52C30.5 43.52 30.93 43.28 31.41 43.28C31.68 43.28 31.95 43.51 32.23 43.3C32.51 43.38 32.79 43.44 33.07 43.51C33.45 43.6 33.84 43.78 34.14 44.03C34.4 44.26 34.22 44.66 34.24 44.98C34.24 45.05 34.25 45.13 34.26 45.2C34.27 45.38 34.38 45.46 34.55 45.46C34.77 45.46 35.05 45.54 35.2 45.44C35.58 45.19 35.98 45.28 36.38 45.27L36.34 45.28ZM45.68 64.64C45.6 64.61 45.54 64.57 45.47 64.57C44.58 64.57 43.7 64.57 42.81 64.57C42.48 64.57 42.16 64.55 41.85 64.73C41.69 64.82 41.4 64.8 41.21 64.73C41.02 64.66 40.9 64.66 40.72 64.73C40.56 64.8 40.36 64.77 40.18 64.77C38.63 64.77 37.08 64.77 35.53 64.79C34.95 64.79 34.35 64.65 33.8 64.97C33.72 65.02 33.58 64.97 33.47 64.97C32.03 64.97 30.59 64.98 29.15 64.99C28.63 64.99 28.09 64.91 27.61 65.03C27.14 65.15 26.68 65.19 26.21 65.19C23.81 65.19 21.41 65.19 19.01 65.2C18.83 65.2 18.64 65.21 18.46 65.22C18.33 65.22 18.21 65.42 18.27 65.56C18.56 66.3 18.59 67.12 19.01 67.82C19.08 67.94 19.11 68.09 19.16 68.23C19.3 68.64 19.52 69.05 19.56 69.46C19.6 69.91 19.75 70.31 19.82 70.74C19.89 71.17 20.1 71.57 20.08 72.02C20.08 72.19 20.19 72.36 20.26 72.53C20.33 72.7 20.46 72.86 20.47 73.03C20.54 73.95 21.1 74.72 21.17 75.65C21.21 76.1 21.76 76.38 22.18 76.21C22.44 76.11 22.68 76.11 22.93 76.1C23.26 76.1 23.59 76.1 23.93 76.09C24.26 76.09 24.6 76.13 24.93 76.08C25.26 76.02 25.55 76.28 25.86 76.16C26.18 76.03 26.52 76.09 26.84 76.08C27.32 76.08 27.8 76.08 28.28 76.09C28.54 76.09 28.62 75.96 28.75 75.75C28.97 75.39 28.83 74.95 29.09 74.6C29.2 74.45 29.18 74.16 29.14 73.95C29.05 73.48 29.29 73.09 29.38 72.67C29.48 72.2 29.95 71.9 30.44 71.89C31.03 71.88 31.62 71.89 32.21 71.89C32.54 71.89 32.88 71.87 33.21 71.89C33.38 71.9 33.55 72.05 33.72 72.05C33.93 72.05 34.13 71.9 34.34 71.9C35.08 71.88 35.82 71.89 36.56 71.88C36.76 71.88 36.91 71.99 37.02 72.14C37.26 72.48 37.15 73 36.78 73.18C36.63 73.26 36.44 73.34 36.28 73.32C36.12 73.3 36.01 73.23 36 73.46C35.96 74.02 36.2 74.52 36.37 75.04C36.46 75.32 36.61 75.45 36.92 75.45C38.69 75.44 40.47 75.45 42.24 75.45C42.52 75.45 42.54 75.38 42.68 75.08C42.95 74.49 42.76 73.76 43.3 73.25C43.39 73.16 43.34 72.89 43.32 72.71C43.29 72.29 43.4 71.91 43.59 71.55C43.69 71.35 43.72 71.11 43.82 70.94C44.02 70.62 43.92 70.29 44.01 69.98C44.11 69.63 44.28 69.31 44.42 68.98C44.43 68.95 44.42 68.91 44.42 68.87C44.5 68.52 44.51 68.11 44.7 67.83C44.92 67.49 44.82 67.12 44.97 66.78C45.27 66.09 45.46 65.36 45.69 64.65L45.68 64.64ZM22.3 61.24C23.12 61.24 23.79 61.22 24.45 61.24C24.78 61.25 24.98 61.03 25.25 60.92C25.38 60.52 25.83 60.33 25.96 59.96C26.16 59.37 26.61 58.99 27 58.56C27.22 58.32 27.46 58.08 27.71 57.87C27.99 57.62 28.04 57.22 28.35 56.99C28.55 56.84 28.5 56.81 28.46 56.36C28.42 55.92 28.48 55.47 28.4 55.04C28.33 54.69 28.11 54.36 28.4 54.01C28.43 53.97 28.42 53.85 28.38 53.8C28.24 53.61 28.23 53.39 28.23 53.17C28.22 52.62 28.25 52.59 27.58 52.59C27.43 52.59 27.28 52.58 27.14 52.59C26.18 52.65 25.27 52.42 24.35 52.16C24.03 52.07 23.84 51.9 23.65 51.67C23.52 51.51 23.54 51.22 23.67 51.05C23.71 50.99 23.77 50.94 23.82 50.89C24.14 50.57 24.27 50.53 24.69 50.74C25.09 50.93 25.49 51.05 25.95 51.03C26.42 51.01 26.9 51 27.35 51.23C27.44 51.28 27.57 51.25 27.68 51.25C27.98 51.25 28.19 51.11 28.19 50.8C28.19 50.44 28.35 50.17 28.48 49.87C28.55 49.7 28.66 49.56 28.66 49.36C28.65 49.07 28.63 48.76 28.83 48.51C28.53 48.18 28.88 47.9 28.89 47.6C28.89 47.49 28.9 47.38 28.9 47.27C28.9 47.14 28.81 47.07 28.7 47.06C28.41 47.05 28.11 47.06 27.81 47.05C27.48 47.05 27.15 47.03 26.82 47.01C26.48 46.71 26 46.96 25.66 46.75C25.27 46.52 24.87 46.66 24.47 46.6C24.36 46.58 24.22 46.61 24.15 46.55C23.89 46.35 23.59 46.42 23.3 46.37C23.02 46.32 22.75 46.2 22.47 46.14C21.77 45.98 21.06 45.82 20.39 45.54C20.17 45.44 19.94 45.54 19.88 45.78C19.79 46.2 19.59 46.52 19.28 46.79C19.2 46.86 19.18 46.98 19.11 47.07C18.47 47.82 18.14 48.78 17.47 49.51C17.42 49.56 17.4 49.64 17.38 49.71C17.19 50.27 16.88 50.76 16.44 51.16C16.03 51.53 15.72 51.98 15.39 52.43C14.98 53 14.7 53.55 15.07 54.24C15.13 54.36 15.1 54.53 15.11 54.67C15.11 55 15.11 55.33 15.12 55.67C15.12 56.11 15.14 56.56 15.16 57C15.48 57.51 15.29 58.08 15.36 58.61C15.36 58.68 15.37 58.76 15.36 58.83C15.31 59.14 15.51 59.3 15.74 59.44C15.87 59.52 16 59.61 16.14 59.62C16.68 59.68 17.07 60.01 17.49 60.3C17.88 60.57 18.33 60.74 18.71 61.02C19.16 61.35 19.72 61.11 20.17 61.38C20.92 61.08 21.7 61.29 22.31 61.23L22.3 61.24ZM36.88 56.92C37.24 57.24 37.5 57.58 37.71 57.98C38.05 58.62 38.5 59.2 38.9 59.8C38.94 59.85 39.02 59.9 39.08 59.9C39.74 59.9 40.41 59.9 41.07 59.9C41.68 59.51 42.36 59.74 43.01 59.68C43.23 59.66 43.47 59.7 43.66 59.62C43.98 59.47 44.3 59.48 44.63 59.48C44.85 59.48 45.07 59.48 45.29 59.46C45.5 59.44 45.71 59.22 45.72 59.02C45.74 58.47 45.68 57.92 45.96 57.41C45.88 56.74 46.26 56.13 46.2 55.46C46.18 55.27 46.31 55.11 46.34 54.94C46.44 54.37 46.69 53.83 46.63 53.23C46.61 53.08 46.61 52.93 46.49 52.83C46.08 52.46 45.78 52 45.45 51.56C45.25 51.3 44.98 51.1 44.75 50.86C44.49 50.59 44.19 50.35 44.02 50.03C43.85 49.7 43.49 49.66 43.3 49.39C43 48.98 42.66 48.59 42.32 48.21C42.05 47.91 41.78 47.59 41.44 47.37C41.05 47.12 40.94 46.65 40.56 46.41C40.44 46.33 40.32 46.18 40.2 46.18C39.7 46.17 39.2 46.09 38.7 46.37C38.13 46.68 37.49 46.86 36.81 46.83C36.15 46.81 35.48 46.83 34.82 46.84C34.35 46.84 34.19 47.04 34.21 47.54C34.21 47.69 34.17 47.88 34.24 47.97C34.5 48.3 34.41 48.67 34.43 49.03C34.43 49.16 34.51 49.23 34.62 49.26C34.86 49.34 35.06 49.51 35.34 49.48C35.52 49.46 35.73 49.46 35.88 49.54C36.49 49.86 37.14 50.11 37.77 50.38C37.98 50.47 38.09 50.64 38.22 50.83C38.42 51.14 38.39 51.46 38.4 51.79C38.4 52.09 38.49 52.18 38.79 52.16C39.22 52.13 39.67 52.22 40.09 51.98C40.26 51.88 40.52 51.92 40.74 51.92C41.14 51.91 41.33 52.21 41.47 52.51C41.58 52.74 41.33 52.9 41.18 53.06C41.05 53.21 40.89 53.27 40.69 53.27C40.55 53.27 40.4 53.29 40.26 53.33C39.71 53.5 39.16 53.67 38.57 53.7C38.18 53.72 37.79 53.99 37.78 54.34C37.76 54.89 37.4 55.38 37.5 55.95C37.54 56.14 37.45 56.31 37.31 56.45C37.16 56.6 37.02 56.76 36.86 56.93L36.88 56.92ZM59.87 73.8C59.85 73.74 59.81 73.68 59.81 73.61C59.72 72.93 59.5 72.26 59.51 71.56C59.51 71.04 59.31 70.57 59.16 70.08C59.04 69.7 58.82 69.41 58.48 69.25C57.65 68.86 57.05 68.12 56.19 67.77C56.09 67.73 56.03 67.61 55.94 67.55C55.46 67.22 55.05 66.79 54.52 66.53C54.12 66.33 53.77 66.08 53.47 65.74C53.35 65.6 53.19 65.52 53.04 65.42C51.71 64.52 50.33 63.68 49.15 62.58C49.05 62.48 48.92 62.41 48.79 62.34C48.25 62.04 47.72 61.72 47.23 61.32C47.09 61.21 46.91 61.14 46.74 61.07C46.73 61.07 46.64 61.16 46.65 61.2C46.67 61.34 46.8 61.51 46.75 61.6C46.55 61.94 46.75 62.21 46.81 62.53C46.89 62.92 47.08 63.27 47.09 63.69C47.12 64.34 46.94 64.92 46.71 65.48C46.57 65.81 46.62 66.04 46.88 66.26C47.08 66.43 47.25 66.62 47.47 66.75C47.81 66.95 48.18 67.13 48.55 67.28C48.97 67.45 49.2 67.84 49.57 68.06C50.19 68.43 50.87 68.71 51.43 69.18C51.85 69.28 52.03 69.7 52.4 69.88C52.86 70.1 53.31 70.36 53.7 70.68C54.1 71.01 54.56 71.23 54.98 71.52C55.42 71.84 55.94 72.07 56.28 72.53C56.36 72.63 56.52 72.7 56.66 72.73C56.85 72.76 56.99 72.87 57.14 72.97C57.89 73.49 58.65 73.99 59.4 74.5C59.47 74.55 59.66 74.49 59.68 74.41C59.74 74.2 59.68 73.96 59.85 73.78L59.87 73.8ZM20.39 62.58C19.94 62.58 19.71 62.58 19.49 62.58C19.17 62.59 18.97 62.71 18.92 62.99C18.88 63.21 18.8 63.41 18.71 63.61C18.65 63.75 18.82 63.93 18.96 63.86C19.31 63.69 19.65 63.64 20.01 63.79C20.07 63.81 20.14 63.82 20.2 63.81C21.55 63.63 21.7 63.63 22.92 63.81C22.99 63.82 23.04 63.84 23.12 63.8C23.5 63.6 23.92 63.7 24.32 63.69C25.87 63.67 27.42 63.69 28.97 63.69C29.26 63.69 29.56 63.72 29.83 63.55C30 63.45 30.18 63.45 30.36 63.53C30.93 63.77 31.5 63.72 32.07 63.53C32.25 63.47 32.44 63.43 32.6 63.53C32.8 63.66 33.02 63.63 33.24 63.66C34.02 63.75 34.75 63.46 35.51 63.36C36 63.3 38.39 63.16 38.8 63.3C39.56 63.56 40.33 63.37 41.09 63.44C41.43 63.28 41.76 63.13 42.12 63.41C42.16 63.44 42.28 63.44 42.33 63.41C42.62 63.18 42.99 63.32 43.28 63.21C43.65 63.08 43.96 63.14 44.31 63.21C44.68 63.29 45.04 63.18 45.37 63.01C45.53 62.93 45.56 62.78 45.53 62.64C45.5 62.5 45.42 62.37 45.38 62.24C45.28 61.93 45.1 61.66 45.12 61.3C45.15 60.86 45.11 60.86 44.56 60.96C44.38 60.99 44.2 60.99 44.01 61C43.83 61.01 43.6 60.96 43.47 61.04C43.09 61.29 42.69 61.21 42.29 61.21C41.81 61.21 41.33 61.22 40.85 61.24C40.53 61.25 40.21 61.27 39.89 61.38C39.45 61.53 38.97 61.49 38.51 61.25C38.14 61.06 37.83 60.87 37.62 60.51C37.54 60.38 37.4 60.32 37.24 60.38C36.76 60.56 36.27 60.7 35.78 60.76C35.16 60.83 34.56 60.96 33.97 61.15C33.59 61.27 33.25 61.27 32.96 60.96C32.83 60.83 32.71 60.68 32.55 60.59C32.37 60.48 32.16 60.38 31.95 60.36C31.58 60.33 31.17 60.27 30.85 60.4C30.41 60.58 29.99 60.54 29.55 60.55C28.89 60.57 28.22 60.57 27.56 60.57C27.36 60.57 27.15 60.59 27.08 60.77C26.83 61.36 26.24 61.68 25.96 62.24C25.78 62.59 25.4 62.73 25.04 62.76C24.53 62.81 24.01 62.79 23.5 62.72C23.32 62.7 23.18 62.72 23.01 62.72C22.43 62.76 21.84 62.72 21.25 62.72C20.92 62.47 20.54 62.59 20.41 62.57L20.39 62.58ZM1.36001 35.78C1.30001 36.16 1.49001 36.32 1.76001 36.5C2.37001 36.9 2.94001 37.35 3.54001 37.77C4.20001 38.23 4.92001 38.61 5.44001 39.25C5.56001 39.39 5.71001 39.49 5.91001 39.51C6.01001 39.51 6.15001 39.55 6.21001 39.62C6.72001 40.16 7.34001 40.56 7.89001 41.04C8.17001 41.29 8.45001 41.49 8.77001 41.66C8.93001 41.75 9.08001 41.85 9.23001 41.95C9.87001 42.36 10.51 42.78 11.1 43.28C11.69 43.77 12.49 43.94 12.99 44.57C13.03 44.62 13.13 44.62 13.19 44.65C13.55 44.83 13.89 45.04 14.17 45.34C14.41 45.6 14.63 45.58 14.94 45.34C15.06 45.25 15.15 45.12 15.28 45.07C15.72 44.88 15.94 44.51 16.15 44.12C16.23 43.97 16.2 43.83 16.06 43.76C15.48 43.46 14.86 43.22 14.39 42.73C14.31 42.64 14.12 42.66 13.98 42.62C13.08 42.41 12.21 42.15 11.75 41.22C11.68 41.07 11.51 40.94 11.35 40.87C11.13 40.78 10.99 40.61 10.84 40.46C10.6 40.23 10.37 39.99 10.14 39.75C9.95001 39.54 9.81001 39.23 9.58001 39.1C9.25001 38.92 9.18001 38.58 8.95001 38.37C8.47001 37.93 8.22001 37.35 8.07001 36.76C7.91001 36.11 7.47001 35.59 7.35001 34.94C7.34001 34.87 7.35001 34.79 7.33001 34.72C7.28001 34.59 7.24001 34.43 7.15001 34.33C6.98001 34.14 6.80001 33.91 6.57001 33.83C5.93001 33.58 5.46001 33.12 5.00001 32.65C4.72001 32.36 4.30001 32.47 4.01001 32.23C3.98001 32.2 3.88001 32.26 3.81001 32.28C3.41001 32.42 3.12001 32.71 2.87001 33.02C2.41001 33.59 1.98001 34.17 1.59001 34.79C1.40001 35.09 1.24001 35.44 1.33001 35.8L1.36001 35.78ZM33.08 47.49C33.08 47.38 33.1 47.24 33.05 47.16C32.82 46.83 32.89 46.45 32.87 46.09C32.86 45.83 32.87 45.57 32.86 45.32C32.86 45.11 32.66 44.85 32.47 44.85C32.06 44.85 31.68 44.78 31.29 44.63C30.99 44.51 30.68 44.73 30.66 45.07C30.63 45.62 30.36 46.12 30.41 46.69C30.43 46.92 30.26 47.17 30.23 47.41C30.19 47.7 30.22 48 30.21 48.29C30.21 48.36 30.2 48.45 30.15 48.5C29.93 48.75 30 49.06 29.99 49.34C29.97 49.78 29.96 50.22 29.94 50.66C29.63 51 29.91 51.49 29.68 51.81C29.38 52.25 29.74 52.58 29.74 52.96C29.74 53.11 29.78 53.27 29.73 53.4C29.59 53.75 29.67 54.07 29.73 54.43C29.81 54.93 29.77 55.46 29.77 55.98C29.77 56.51 29.83 56.61 30.31 56.75C30.52 56.81 30.76 56.78 30.95 56.86C31.14 56.94 31.25 56.95 31.42 56.82C31.87 56.46 32.3 56.09 32.73 55.71C32.84 55.62 32.97 55.52 33.1 55.5C33.43 55.45 33.78 55.37 34.08 55.53C34.58 55.8 35.16 55.66 35.66 55.91C35.73 55.94 35.87 55.88 35.95 55.82C36.26 55.61 36.12 55.19 36.33 54.93C36.2 54.7 35.94 54.8 35.75 54.72C35.39 54.57 35 54.44 34.61 54.38C34.28 54.33 34.07 54.17 33.88 53.95C33.69 53.73 33.82 53.31 34.12 53.27C34.3 53.24 34.53 53.2 34.66 53.28C35.04 53.5 35.44 53.47 35.84 53.5C35.98 53.5 36.11 53.59 36.25 53.63C36.5 53.71 36.59 53.65 36.61 53.41C36.63 53 36.7 52.78 36.11 52.81C35.66 52.84 35.29 52.51 34.83 52.57C34.49 52.62 34.29 52.39 34.09 52.16C34.01 52.07 34.01 51.98 34.09 51.88C34.33 51.55 34.68 51.34 35.04 51.51C35.55 51.76 36.13 51.59 36.62 51.87C36.66 51.89 36.78 51.84 36.8 51.79C36.85 51.7 36.87 51.58 36.78 51.49C36.75 51.46 36.73 51.43 36.7 51.41C36.42 51.23 36.14 51.05 35.81 51.03C35.33 51 34.92 50.67 34.42 50.76C34.36 50.77 34.28 50.73 34.22 50.68C33.99 50.5 33.76 50.34 33.44 50.32C33.28 50.31 33.14 50.11 33.1 49.92C33.07 49.78 33.11 49.61 33.06 49.48C32.81 48.92 32.76 48.36 33.03 47.79C33.07 47.7 33.06 47.58 33.07 47.47L33.08 47.49ZM48.2 84.52C48.2 84.37 48.2 84.22 48.2 84.08C48.24 83.63 48.1 83.31 47.63 83.14C46.97 82.9 46.43 82.45 45.85 82.07C45.73 81.99 45.6 81.87 45.47 81.88C45.17 81.88 45.01 81.68 44.8 81.53C44.56 81.36 44.22 81.44 44 81.21C43.93 81.13 43.79 81.1 43.76 81.01C43.67 80.8 43.52 80.77 43.33 80.74C43.15 80.71 42.97 80.67 42.8 80.61C42.51 80.51 42.22 80.5 41.95 80.66C41.76 80.77 41.61 80.7 41.44 80.62C41.32 80.56 41.1 80.51 41.03 80.57C40.78 80.79 40.5 80.55 40.22 80.7C39.99 80.82 39.64 80.73 39.35 80.74C39.05 80.74 38.76 80.75 38.46 80.75C38.2 80.75 37.94 80.79 37.72 80.62C37.65 80.57 37.59 80.57 37.53 80.64C37.35 80.84 37.06 80.95 37.25 81.35C37.37 81.59 37.37 81.96 37.28 82.22C37.01 83.01 37.11 83.82 37.07 84.62C37.06 84.82 36.97 84.97 36.9 85.13C36.84 85.27 36.96 85.42 37.12 85.42C37.67 85.42 38.23 85.42 38.78 85.42C38.92 85.42 39.08 85.42 39.21 85.36C39.64 85.17 40.05 85.17 40.48 85.36C40.61 85.42 40.77 85.43 40.91 85.43C42.24 85.43 43.57 85.43 44.9 85.45C45.56 85.45 46.22 85.32 46.86 85.63C46.95 85.67 47.08 85.65 47.19 85.65C48.36 85.64 48.15 85.81 48.2 84.66C48.2 84.62 48.2 84.59 48.2 84.55V84.52ZM28.19 83.29C28.19 82.74 28.19 82.18 28.19 81.63C28.19 81.51 28.1 81.44 27.98 81.43C27.83 81.42 27.69 81.42 27.54 81.42C26.07 81.42 24.59 81.42 23.12 81.41C22.86 81.41 22.56 81.47 22.36 81.36C21.93 81.12 21.49 81.26 21.07 81.21C20.97 81.2 20.83 81.21 20.76 81.26C20.37 81.6 19.85 81.74 19.46 82.06C19.04 82.41 18.57 82.69 18.13 83C17.65 83.33 17.15 83.64 16.75 84.09C16.6 84.26 16.46 84.39 16.63 84.64C16.7 84.75 16.66 84.93 16.68 85.07C16.72 85.36 16.75 85.39 17 85.39C18.18 85.39 19.36 85.39 20.54 85.38C20.94 85.38 21.36 85.49 21.71 85.21C22 85.21 22.32 85.16 22.58 85.25C23.27 85.5 23.96 85.33 24.65 85.38C24.99 85.12 25.33 85.35 25.67 85.37C26.33 85.4 27 85.39 27.66 85.39C28.01 85.39 28.18 85.21 28.19 84.84C28.2 84.32 28.19 83.81 28.19 83.29V83.29ZM13 46.42C12.92 46.49 12.82 46.55 12.76 46.64C12.51 47 12.17 47.33 12.05 47.73C11.92 48.17 11.57 48.46 11.42 48.87C11.3 49.21 11.37 49.6 11.16 49.92C11.22 50.13 11.3 50.33 11.34 50.54C11.39 50.82 11.68 50.94 11.75 51.18C11.84 51.5 12.13 51.5 12.33 51.63C12.53 51.76 12.75 51.69 12.95 51.57C13.04 51.52 13.16 51.5 13.26 51.49C13.59 51.47 13.95 51.54 14.25 51.44C14.56 51.33 14.6 50.92 14.78 50.66C14.93 50.45 15.14 50.29 15.31 50.09C15.48 49.9 15.67 49.71 15.79 49.49C16.57 48.05 17.6 46.76 18.46 45.37C18.73 44.93 18.7 44.8 18.18 44.62C18.08 44.58 17.97 44.57 17.86 44.54C17.64 44.46 17.49 44.49 17.43 44.66C17.11 45.52 16.49 46.1 15.73 46.6C15.41 46.81 15.03 46.79 14.74 47.02C14.53 46.96 14.32 46.91 14.12 46.84C13.81 46.74 13.5 46.64 13.19 46.53C13.12 46.51 13.06 46.47 12.99 46.43L13 46.42ZM36.58 58.94C36.45 58.73 36.32 58.52 36.2 58.32C36.06 58.1 35.99 57.87 35.98 57.6C35.98 57.3 35.88 57.25 35.55 57.24C35.29 57.23 34.99 57.3 34.79 57.19C34.44 56.99 34.08 57.04 33.72 57.01C33.62 57.01 33.49 57.01 33.41 57.07C33 57.36 32.63 57.69 32.27 58.04C32.21 58.1 32.23 58.28 32.35 58.32C32.7 58.44 32.86 58.72 33 59.02C33.06 59.15 33.12 59.29 33.2 59.41C33.3 59.56 33.43 59.7 33.64 59.69C33.89 59.68 34.15 59.74 34.4 59.62C35.09 59.29 35.86 59.24 36.59 58.95L36.58 58.94ZM24.65 78.76C24.65 78.83 24.65 78.91 24.65 78.98C24.69 79.26 24.5 79.63 24.77 79.81C25.02 79.98 25.37 80 25.68 80.08C25.75 80.1 25.83 80.08 25.9 80.09C26.66 80.1 26.66 80.14 26.64 79.42C26.63 79.06 26.66 78.69 26.62 78.33C26.6 78.13 26.51 77.85 26.36 77.76C26.1 77.6 25.76 77.56 25.46 77.47C25.27 77.67 24.95 77.56 24.76 77.71C24.54 77.89 24.67 78.19 24.65 78.43C24.64 78.54 24.65 78.65 24.65 78.76V78.76ZM40.27 79.21C40.92 78.46 40.47 77.68 40.39 76.92C40.39 76.82 40.3 76.81 40.23 76.86C40.03 76.99 39.79 77.04 39.61 76.91C39.33 76.71 39.14 76.89 38.9 76.96C38.67 77.02 38.61 77.15 38.63 77.35C38.63 77.42 38.63 77.5 38.63 77.57C38.64 78.08 38.65 78.59 38.66 79.1C39.19 79.33 39.74 79.16 40.26 79.22L40.27 79.21ZM31.26 58.92C30.89 58.27 30.21 58.04 29.6 57.72C29.55 57.7 29.42 57.73 29.41 57.77C29.28 58.14 28.95 58.33 28.72 58.62C28.66 58.69 28.66 58.82 28.68 58.92C28.68 58.96 28.79 59.02 28.86 59.02C29.63 59.02 30.41 59 31.18 58.98C31.21 58.98 31.24 58.94 31.26 58.92V58.92Z" fill="#2C2C31"/>
<path d="M47.89 36.41C47.56 36.41 47.22 36.45 46.94 36.21C46.24 36.23 45.59 35.89 44.89 35.93C44.53 35.95 44.15 36 43.82 35.75C43.79 35.73 43.75 35.73 43.71 35.73C43.27 35.72 42.82 35.73 42.38 35.7C41.95 35.67 41.55 35.5 41.09 35.5C38.61 35.53 36.14 35.52 33.66 35.52C33.51 35.52 33.36 35.51 33.22 35.52C32.27 35.56 31.31 35.38 30.38 35.7C29.71 35.71 29.05 35.72 28.38 35.74C28.05 35.74 27.73 35.69 27.41 35.89C27.27 35.98 27.05 35.94 26.87 35.94C26.5 35.94 26.13 35.94 25.76 35.94C25.28 35.95 24.8 35.98 24.33 36C23.93 36.33 23.37 36.02 22.97 36.36C22.38 36.31 21.84 36.65 21.24 36.61C21.02 36.59 20.81 36.65 20.6 36.75C20.37 36.87 19.91 36.64 19.78 36.41C19.43 35.81 19.26 35.14 19.11 34.47C19.06 34.26 19.07 34.04 18.93 33.84C18.67 33.46 18.65 33.02 18.66 32.58C18.66 32.18 18.7 31.74 18.57 31.38C18.41 30.97 18.56 30.56 18.42 30.19C18.26 29.76 18.16 29.37 18.38 28.94C18.05 28.24 18.36 27.47 18.19 26.77C18.03 26.12 18.03 25.47 18.03 24.81C18.03 24.14 18.03 23.48 18.03 22.81C18.03 22.63 18.02 22.42 18.1 22.27C18.25 21.97 18.25 21.72 18.08 21.44C17.99 21.28 17.98 21.08 18.1 20.92C18.29 20.65 18.32 20.31 18.16 20.09C17.96 19.81 18.36 19.61 18.16 19.38C18 19.19 18.04 18.97 18.04 18.75C18.05 18.46 18 18.18 18.17 17.89C18.27 17.72 18.24 17.46 18.24 17.24C18.24 16.72 18.24 16.21 18.24 15.69C18.24 15.42 18.44 15.14 18.68 15.13C19.38 15.08 20.01 14.78 20.65 14.54C20.94 14.44 21.25 14.53 21.5 14.36C21.77 14.18 22.06 14.22 22.35 14.22C22.57 14.22 22.77 14.17 22.98 14.07C23.23 13.94 23.52 13.85 23.8 13.81C24.16 13.76 24.56 13.85 24.9 13.74C25.26 13.61 25.6 13.59 25.97 13.57C26.48 13.55 27 13.66 27.48 13.37C27.62 13.29 27.84 13.36 28.03 13.35C28.36 13.33 28.69 13.37 29 13.17C29.08 13.12 29.25 13.1 29.32 13.14C29.76 13.44 30.15 13.12 30.56 13.06C30.69 13.04 30.79 12.94 30.95 13.03C31.07 13.09 31.25 13.12 31.37 13.08C31.61 13 31.88 12.8 32.09 12.96C32.33 13.14 32.58 12.82 32.8 13.06C32.86 13.13 33.1 13.12 33.21 13.06C33.41 12.95 33.61 12.87 33.84 12.91C34.35 12.98 34.87 12.8 35.37 13.03C35.46 13.07 35.6 13.1 35.67 13.06C36.05 12.84 36.46 12.9 36.86 12.93C37.21 12.95 37.54 13.03 37.9 12.93C38.07 12.88 38.26 12.91 38.43 13.02C38.52 13.08 38.64 13.13 38.74 13.12C39.42 13.01 40.02 13.36 40.69 13.39C41.19 13.41 41.7 13.53 42.2 13.62C42.76 13.72 43.3 13.98 43.84 14.19C44.18 14.32 44.51 14.46 44.89 14.48C45.21 14.5 45.54 14.59 45.83 14.72C46.46 15.01 47.08 15.28 47.78 15.39C48.2 15.46 48.56 15.76 48.99 15.87C49.2 15.92 49.4 16 49.62 16.03C50.09 16.1 50.35 16.34 50.42 16.79C50.51 17.33 50.76 17.84 50.67 18.4C50.98 18.91 50.83 19.47 50.86 20.02C50.88 20.29 51.09 20.54 50.94 20.83C51.06 20.99 51.03 21.18 51.08 21.35C51.17 21.7 50.85 22 51.04 22.4C51.17 22.67 51.08 23.05 51.08 23.39C51.08 23.76 51.08 24.13 51.08 24.5C51.08 24.9 51.16 25.31 50.9 25.68C50.86 25.73 50.87 25.82 50.87 25.89C50.86 26.33 50.9 26.78 50.83 27.22C50.77 27.61 50.61 27.98 50.62 28.39C50.62 28.67 50.48 28.95 50.43 29.23C50.39 29.52 50.42 29.81 50.26 30.09C50.18 30.24 50.19 30.45 50.17 30.63C50.16 30.74 50.17 30.86 50.14 30.96C50.01 31.29 49.7 31.53 49.82 31.96C49.92 32.32 49.69 32.63 49.59 32.97C49.46 33.38 49.59 33.85 49.31 34.24C49.31 34.84 48.98 35.35 48.85 35.91C48.77 36.23 48.57 36.41 48.23 36.43C48.12 36.43 48.01 36.44 47.9 36.45L47.89 36.41ZM19.79 30.34C19.79 30.5 19.8 30.8 19.79 31.09C19.78 31.33 19.98 31.51 19.98 31.71C19.97 32.3 20.3 32.84 20.23 33.43C20.2 33.66 20.32 33.85 20.4 34.05C20.5 34.32 20.66 34.56 20.7 34.87C20.73 35.14 20.87 35.15 21.24 35.11C21.6 35.06 22.02 35.14 22.32 34.99C22.77 34.77 23.29 34.98 23.69 34.65C24.17 34.63 24.65 34.61 25.13 34.6C25.28 34.6 25.45 34.65 25.57 34.6C26.09 34.32 26.65 34.43 27.19 34.42C28.04 34.4 28.89 34.41 29.74 34.4C29.92 34.4 30.13 34.44 30.29 34.37C30.89 34.08 31.52 34.2 32.14 34.18C32.58 34.17 33.02 34.26 33.44 34.02C33.58 33.94 33.71 34.04 33.85 34.11C34.09 34.22 34.34 34.22 34.6 34.11C34.73 34.06 34.87 33.98 35.01 33.99C35.3 34 35.58 33.96 35.87 34.11C36.18 34.27 36.47 33.85 36.81 33.99C36.84 34 36.89 33.98 36.92 33.99C37.4 34.28 37.93 34.17 38.43 34.16C38.93 34.16 39.46 34.29 39.94 34C40.08 33.92 40.35 33.92 40.48 34C40.79 34.2 41.12 34.14 41.44 34.18C42.16 34.27 42.91 34.03 43.6 34.4C44.12 34.4 44.63 34.4 45.15 34.42C45.33 34.42 45.52 34.42 45.69 34.49C46.2 34.69 46.73 34.81 47.26 34.92C47.52 34.97 47.67 34.91 47.74 34.68C47.95 33.99 48.06 33.27 48.32 32.59C48.41 32.36 48.39 32.09 48.42 31.83C48.42 31.76 48.43 31.67 48.48 31.62C48.72 31.38 48.66 31.07 48.65 30.78C48.65 30.48 48.88 30.25 48.86 29.94C48.84 29.58 48.84 29.2 49.06 28.88C49.1 28.26 49.4 27.68 49.31 27.04C49.29 26.86 49.29 26.65 49.37 26.5C49.58 26.12 49.52 25.71 49.54 25.31C49.57 24.69 49.46 24.06 49.72 23.47C49.75 23.41 49.72 23.32 49.72 23.25C49.72 22.91 49.6 22.7 49.24 22.64C48.9 22.58 48.64 22.35 48.33 22.28C47.98 22.2 47.6 22.2 47.24 22.17C47.21 22.17 47.18 22.14 47.14 22.12C46.73 21.97 46.33 21.74 45.89 21.77C45.43 21.8 45.04 21.55 44.61 21.53C44.36 21.52 44.1 21.52 43.87 21.37C43.76 21.3 43.57 21.3 43.45 21.37C43.27 21.46 43.14 21.45 42.95 21.37C42.58 21.22 42.14 21.41 41.77 21.2C41.35 20.97 40.9 21.17 40.47 21.11C39.93 21.04 39.37 21.21 38.86 20.89C38.79 20.84 38.64 20.89 38.54 20.92C38.4 20.96 38.27 21.08 38.14 21.07C37.52 21.02 36.9 21.18 36.29 20.92C35.94 20.77 35.49 20.9 35.12 20.67C35.04 20.62 34.88 20.63 34.8 20.69C34.47 20.93 34.09 20.85 33.73 20.86C32.66 20.87 31.59 20.88 30.52 20.88C30.37 20.88 30.21 20.84 30.08 20.89C29.41 21.18 28.7 21.03 28.02 21.08C27.84 21.09 27.61 21.05 27.48 21.13C27.17 21.34 26.84 21.26 26.52 21.29C26.3 21.31 26.06 21.29 25.88 21.38C25.63 21.51 25.39 21.5 25.13 21.51C24.62 21.53 24.1 21.43 23.6 21.62C23.1 21.82 22.58 21.68 22.07 21.75C22 21.75 21.92 21.77 21.86 21.81C21.56 22.02 21.19 21.86 20.9 21.99C20.55 22.16 20.2 22.18 19.83 22.19C19.7 22.19 19.62 22.27 19.6 22.38C19.57 22.52 19.57 22.67 19.57 22.82C19.57 24.7 19.59 26.59 19.6 28.47C19.6 28.62 19.54 28.81 19.61 28.9C19.91 29.31 19.76 29.75 19.8 30.32L19.79 30.34ZM34.19 14.43C34.04 14.43 33.89 14.43 33.75 14.43C33.27 14.43 32.79 14.42 32.31 14.43C31.79 14.43 31.27 14.49 30.76 14.44C30.27 14.4 29.83 14.55 29.37 14.66C29.19 14.7 29 14.67 28.82 14.68C28.67 14.68 28.5 14.64 28.38 14.7C27.82 15 27.23 14.86 26.64 14.9C26.46 14.9 26.24 14.87 26.1 14.95C25.79 15.15 25.46 15.07 25.14 15.11C24.82 15.15 24.51 15.31 24.19 15.31C23.74 15.31 23.31 15.42 22.91 15.56C22.52 15.7 22.15 15.79 21.74 15.78C21.35 15.78 20.23 16.07 19.96 16.22C19.61 16.41 19.54 16.58 19.63 17.04C19.64 17.11 19.73 17.19 19.71 17.23C19.4 17.86 19.64 18.54 19.55 19.19C19.48 19.62 19.67 20.07 19.42 20.49C19.36 20.59 19.59 20.88 19.71 20.88C19.82 20.88 19.96 20.91 20.04 20.86C20.33 20.65 20.66 20.65 20.99 20.66C21.14 20.66 21.31 20.68 21.42 20.61C21.69 20.43 21.99 20.44 22.27 20.46C22.62 20.49 22.89 20.26 23.22 20.24C23.59 20.22 23.96 20.24 24.33 20.2C24.69 20.16 25.04 20.01 25.4 20.02C26.18 20.04 26.9 19.67 27.68 19.76C27.72 19.76 27.76 19.76 27.79 19.76C28.26 19.47 28.79 19.6 29.3 19.57C29.63 19.55 29.97 19.57 30.29 19.51C30.5 19.47 30.66 19.31 30.9 19.45C31.1 19.57 31.28 19.33 31.51 19.33C32.36 19.35 33.21 19.33 34.06 19.34C34.21 19.34 34.39 19.3 34.5 19.37C34.91 19.64 35.36 19.54 35.79 19.54C36.49 19.54 37.19 19.54 37.9 19.54C38.08 19.54 38.29 19.51 38.45 19.58C38.81 19.75 39.13 19.83 39.48 19.58C39.57 19.52 39.79 19.55 39.9 19.62C40.11 19.74 40.31 19.74 40.53 19.75C41.26 19.8 42 19.66 42.7 19.97C43.14 19.95 43.56 20.05 43.99 20.16C44.4 20.27 44.87 20.2 45.31 20.21C45.42 20.21 45.56 20.2 45.63 20.26C46.03 20.58 46.6 20.25 46.99 20.62C47.48 20.58 47.92 20.8 48.38 20.86C48.71 20.9 49.02 20.99 49.33 21.07C49.38 21.08 49.49 21 49.5 20.96C49.5 20.48 49.5 20 49.49 19.52C49.26 19.24 49.29 18.9 49.28 18.57C49.27 18.24 49.01 17.97 49.08 17.62C49.11 17.46 49 17.34 48.82 17.34C48.63 17.34 48.48 17.23 48.31 17.15C47.75 16.9 47.17 16.64 46.59 16.49C45.88 16.3 45.23 16 44.55 15.75C44.31 15.66 44.09 15.54 43.82 15.55C43.64 15.55 43.47 15.53 43.29 15.44C42.63 15.11 41.87 15.16 41.19 14.91C40.45 14.95 39.76 14.57 39.02 14.67C38.95 14.67 38.86 14.69 38.8 14.65C38.36 14.35 37.87 14.47 37.4 14.46C36.33 14.44 35.26 14.46 34.19 14.46V14.43Z" fill="#2C2C31"/>
<path d="M31.76 28.6C31.76 29.19 31.77 29.78 31.76 30.37C31.76 30.71 31.58 31.05 31.72 31.4C31.49 31.86 31.27 32.31 31.04 32.77C31.02 32.8 31 32.83 30.97 32.85C30.48 33.17 30 33.57 29.38 33.46C29.09 33.41 28.84 33.44 28.57 33.48C28.05 33.55 27.54 33.5 27.16 33.07C26.45 32.88 26.13 32.31 25.87 31.69C25.71 31.32 25.53 30.97 25.54 30.55C25.54 30.27 25.39 29.99 25.35 29.71C25.32 29.46 25.35 29.2 25.19 28.97C25.14 28.89 25.14 28.76 25.14 28.65C25.13 27.84 25.12 27.03 25.12 26.21C25.12 26.07 25.15 25.92 25.2 25.79C25.35 25.42 25.51 25.07 25.6 24.67C25.68 24.31 25.95 23.92 26.25 23.69C26.55 23.46 26.83 23.11 27.27 23.09C28.29 22.62 29.26 22.85 30.21 23.31C30.55 23.48 30.87 23.72 30.88 24.12C30.88 24.51 31.06 24.74 31.31 24.97C31.48 25.13 31.56 25.32 31.55 25.56C31.54 25.82 31.56 26.06 31.69 26.3C31.79 26.48 31.76 26.73 31.77 26.94C31.77 27.49 31.77 28.05 31.77 28.6H31.76ZM29.71 25C29.51 24.46 28.98 24.44 28.56 24.26C28.4 24.19 28.19 24.18 28.02 24.23C27.65 24.32 27.43 24.65 27.19 24.92C27.02 25.1 26.91 25.34 26.78 25.56C26.74 25.62 26.7 25.69 26.69 25.76C26.64 26.33 26.72 26.92 26.53 27.48C26.75 27.82 26.62 28.2 26.65 28.56C26.68 28.85 26.69 29.15 26.65 29.44C26.61 29.8 26.88 30.05 26.88 30.39C26.88 31.05 27.38 31.42 27.78 31.84C27.83 31.89 27.91 31.93 27.97 31.93C28.52 31.93 29.07 31.93 29.62 31.91C29.72 31.91 29.94 31.61 29.95 31.5C29.97 31.32 29.83 31.24 29.71 31.17C29.49 31.04 29.24 30.97 29.03 30.83C28.73 30.62 28.49 30.39 28.39 29.98C28.23 29.34 28.14 28.67 28.18 27.9C28.2 27.42 28.19 26.95 28.42 26.52C28.37 26.14 28.59 25.89 28.83 25.66C29.1 25.41 29.34 25.13 29.69 25.01L29.71 25Z" fill="#2C2C31"/>
<path d="M44.19 27.64C44.19 28.12 44.2 28.6 44.19 29.08C44.17 29.51 44.3 29.97 43.99 30.36C44.01 30.82 43.85 31.22 43.6 31.59C43.48 31.77 43.6 32.05 43.38 32.2C43.2 32.33 43.02 32.44 42.84 32.56C42.69 32.66 42.5 32.73 42.39 32.87C41.84 33.5 41.11 33.28 40.43 33.29C40.36 33.29 40.28 33.26 40.23 33.21C40.01 33.02 39.81 32.79 39.47 32.82C38.94 32.41 38.42 31.97 38.24 31.31C38.14 30.96 37.94 30.64 37.98 30.25C38.01 30.03 37.9 29.83 37.83 29.62C37.76 29.42 37.75 29.17 37.83 28.97C38.02 28.47 38.06 27.98 37.87 27.48C37.82 27.35 37.94 27.29 37.95 27.19C37.98 26.79 38.03 26.38 38 25.98C37.96 25.48 38.3 25.08 38.26 24.59C38.26 24.53 38.32 24.46 38.37 24.4C38.88 23.7 39.58 23.23 40.37 22.9C40.47 22.86 40.59 22.86 40.7 22.86C41.14 22.86 41.59 22.81 42.03 22.87C42.52 22.94 43.04 23.05 43.4 23.46C43.59 23.68 43.78 23.91 43.98 24.13C43.91 24.62 44.26 25.03 44.24 25.52C44.21 26.22 44.24 26.92 44.24 27.63L44.19 27.64ZM42.17 31.36C42.04 31.25 41.91 31.12 41.76 31.01C41.35 30.72 41.22 30.24 40.93 29.86C40.77 29.65 40.78 29.31 40.72 29.03C40.68 28.87 40.85 28.73 40.7 28.54C40.61 28.42 40.59 28.16 40.66 28.01C40.83 27.63 40.84 27.24 40.84 26.84C40.84 26.65 40.91 26.49 41.04 26.34C41.13 26.23 41.23 26.11 41.28 25.98C41.49 25.48 41.85 25.24 42.4 25.28C42.43 25.28 42.47 25.27 42.5 25.26C42.57 25.24 42.64 25.06 42.6 24.98C42.43 24.59 42.21 24.31 41.69 24.39C41.33 24.45 40.96 24.39 40.59 24.39C40.39 24.39 40.25 24.49 40.1 24.6C39.83 24.81 39.63 25.1 39.56 25.41C39.45 25.86 39.25 26.29 39.28 26.79C39.36 27.84 39.15 28.91 39.49 29.95C39.38 30.38 39.71 30.71 39.77 31.1C39.81 31.35 40.04 31.55 40.27 31.66C40.52 31.79 40.81 31.83 41.09 31.92C41.42 31.7 41.9 31.8 42.16 31.34L42.17 31.36Z" fill="#2C2C31"/>
</svg>
